<?xml version="1.0" standalone="no"?>
<!DOCTYPE svg PUBLIC "-//W3C//DTD SVG 20010904//EN"
 "http://www.w3.org/TR/2001/REC-SVG-20010904/DTD/svg10.dtd">
<svg version="1.0" xmlns="http://www.w3.org/2000/svg"
 width="575.000000pt" height="1000.000000pt" viewBox="0 0 575.000000 1000.000000"
 preserveAspectRatio="xMidYMid meet">

<g transform="translate(0.000000,1000.000000) scale(0.100000,-0.100000)"
fill="#000000" stroke="none">
<path d="M675 9894 c-11 -2 -45 -9 -75 -15 -102 -20 -214 -82 -300 -167 -86
-86 -136 -168 -172 -282 l-23 -75 0 -4350 c0 -3622 2 -4359 14 -4405 54 -221
227 -402 451 -472 l75 -23 2225 0 c1836 0 2235 2 2280 14 221 54 402 227 472
451 l23 75 0 4350 c0 3622 -2 4359 -14 4405 -53 219 -224 399 -446 471 -65 21
-92 23 -362 27 l-293 4 0 -200 c0 -159 -3 -210 -17 -251 -23 -71 -83 -137
-158 -172 l-60 -29 -1406 0 c-1578 0 -1466 -5 -1556 74 -28 24 -57 64 -74 101
-29 60 -29 60 -29 268 l0 207 -267 -1 c-148 -1 -277 -3 -288 -5z m759 -3469
c39 -36 56 -85 56 -163 0 -137 -53 -283 -165 -454 l-66 -100 -6 -187 c-6 -208
4 -294 55 -461 16 -52 27 -100 25 -107 -8 -20 -67 -34 -111 -27 -68 11 -99 36
-117 96 -21 75 -36 274 -28 398 l6 105 -24 -18 c-120 -87 -215 -134 -298 -146
l-46 -6 -6 -105 c-8 -144 -24 -204 -61 -235 -18 -16 -42 -25 -63 -25 -59 0
-68 33 -55 191 6 63 13 132 16 154 5 37 3 41 -26 59 -86 50 -91 197 -10 278
21 21 47 38 58 38 18 0 21 9 28 88 13 139 11 332 -4 374 -15 42 -35 52 -86 43
-91 -18 -123 -122 -71 -233 14 -30 25 -64 25 -76 0 -34 -23 -58 -51 -54 -37 5
-73 85 -77 176 -4 66 -1 79 28 139 48 96 131 151 235 152 71 1 110 -25 143
-97 27 -56 27 -60 26 -252 -1 -168 -19 -394 -40 -489 -5 -24 -4 -24 52 -18 70
7 175 57 255 121 l56 44 12 123 c30 298 98 552 173 649 44 56 117 67 162 25z
m3058 -230 c9 -20 9 -67 -1 -198 -6 -95 -15 -189 -18 -209 -5 -34 -3 -38 17
-38 12 0 58 16 103 35 89 39 115 43 124 20 12 -34 -64 -80 -192 -115 l-60 -17
-7 -59 c-3 -32 -9 -154 -14 -271 -8 -238 -5 -257 45 -227 38 23 91 93 147 192
l49 87 6 142 c4 92 11 148 19 158 7 9 40 36 72 60 45 34 69 45 95 45 l36 0 -5
-72 c-3 -40 -13 -94 -22 -120 -37 -105 -60 -409 -36 -472 29 -77 138 18 225
198 49 101 55 120 65 216 15 144 15 144 77 201 65 58 101 63 117 16 12 -32 -7
-163 -32 -217 -19 -43 -32 -450 -14 -450 42 0 136 133 222 312 69 146 84 168
100 151 36 -35 -138 -399 -244 -511 -17 -19 -43 -40 -58 -48 -56 -29 -164 -9
-188 36 -7 13 -10 60 -8 126 2 57 2 104 2 104 -1 0 -22 -35 -47 -77 -87 -151
-152 -202 -252 -203 -102 0 -135 44 -135 179 l0 85 -36 -60 c-56 -93 -110
-160 -149 -184 -31 -19 -47 -22 -110 -18 -41 2 -79 8 -85 14 -20 20 -30 85
-30 199 l0 110 -45 -84 c-94 -174 -162 -241 -246 -241 -106 0 -129 24 -129
138 l0 86 -46 -69 c-53 -82 -89 -121 -126 -141 -61 -32 -172 -6 -184 43 -4 14
-4 75 0 137 3 61 9 180 12 264 7 147 6 152 -13 152 -29 0 -107 -64 -169 -139
-61 -74 -61 -72 -72 -306 l-7 -160 -47 -3 c-26 -2 -62 4 -84 13 l-37 15 7 123
c20 383 20 446 2 453 -11 4 -25 0 -36 -12 -31 -33 -129 -186 -166 -260 -33
-67 -36 -79 -42 -200 l-7 -129 -65 1 c-36 0 -76 6 -89 13 -24 13 -24 14 -18
133 l6 120 -55 -89 c-61 -96 -104 -147 -146 -169 -60 -31 -170 -7 -188 41 -6
15 -10 56 -10 93 l0 67 -44 -65 c-24 -36 -64 -84 -89 -107 -43 -39 -51 -43
-99 -43 -69 0 -119 25 -131 65 -4 17 -6 75 -3 130 l6 100 -40 -75 c-48 -91
-119 -174 -171 -200 -46 -24 -128 -26 -169 -5 -18 9 -34 30 -46 60 -16 42 -16
68 -6 323 5 152 13 285 17 295 4 9 37 39 74 67 47 36 75 50 99 50 l32 0 0 -59
c0 -32 -9 -89 -21 -125 -23 -78 -49 -269 -49 -372 0 -148 37 -172 125 -81 101
104 160 239 180 410 l14 122 57 53 c60 54 106 68 118 36 15 -40 0 -161 -31
-239 -19 -49 -32 -428 -15 -439 25 -15 113 91 175 209 22 43 27 72 37 195 6
80 15 157 21 171 10 25 68 79 113 106 36 21 65 16 72 -13 10 -41 -4 -155 -27
-220 -19 -50 -22 -87 -27 -256 -3 -134 -1 -198 6 -198 34 0 124 116 193 250
32 61 34 72 39 196 6 148 5 145 94 211 42 31 68 43 92 43 l34 0 0 -63 c0 -34
-7 -87 -15 -117 -21 -77 -37 -174 -33 -206 3 -23 11 -12 57 72 120 219 184
294 253 294 27 0 47 -8 70 -29 33 -29 33 -30 38 -142 l5 -112 50 64 c72 92
164 188 196 205 45 23 84 18 124 -17 35 -31 35 -31 35 -115 0 -46 -9 -175 -21
-286 -11 -111 -18 -212 -15 -224 6 -21 9 -22 32 -12 31 15 109 117 151 200 29
58 32 76 42 212 8 100 16 158 26 173 24 37 119 103 148 103 22 0 27 -6 33 -36
8 -45 -1 -117 -27 -200 -28 -92 -51 -400 -33 -448 5 -12 10 -13 30 -4 41 19
112 124 180 263 56 117 63 138 68 210 l6 80 -48 22 c-49 23 -77 59 -66 88 8
19 37 26 88 23 l39 -3 23 158 c12 86 25 166 29 176 8 25 81 91 100 91 9 0 21
-11 27 -25z m-1972 -44 c26 -49 -3 -161 -51 -195 -34 -23 -86 -21 -99 4 -17
31 -23 112 -11 142 22 58 137 93 161 49z m1575 2 c14 -13 16 -28 12 -70 -9
-90 -56 -143 -126 -143 -24 0 -31 6 -40 31 -14 41 -14 114 0 140 27 51 121 76
154 42z m-2865 -1521 c51 -27 85 -93 84 -162 -3 -219 -287 -246 -327 -32 -8
42 8 117 33 152 41 58 142 78 210 42z m1444 3 c30 -14 66 -60 66 -84 0 -6 -11
-11 -25 -11 -15 0 -25 6 -25 14 0 26 -50 56 -92 56 -32 0 -47 -7 -74 -34 -31
-31 -34 -39 -34 -94 0 -78 12 -107 52 -132 57 -36 137 -6 152 56 5 17 13 24
30 24 23 0 24 -2 16 -31 -14 -49 -39 -79 -75 -95 -78 -32 -163 -6 -202 62 -32
55 -32 153 0 208 39 69 135 97 211 61z m353 -5 c27 -16 63 -65 63 -85 0 -3
-11 -5 -24 -5 -16 0 -27 7 -31 20 -8 24 -54 50 -90 50 -104 0 -153 -156 -75
-243 24 -27 35 -32 75 -32 39 0 51 5 71 28 13 15 24 37 24 48 0 14 7 19 25 19
50 0 15 -89 -48 -122 -77 -39 -168 -12 -212 63 -28 48 -28 151 1 199 45 77
148 105 221 60z m596 9 c52 -27 79 -99 37 -99 -13 0 -24 10 -30 24 -25 66
-150 58 -150 -9 0 -28 19 -40 86 -55 106 -24 147 -66 128 -132 -26 -89 -182
-105 -249 -27 -33 40 -33 69 0 69 18 0 25 -5 25 -20 0 -40 78 -69 134 -50 37
12 52 37 41 69 -6 21 -34 34 -114 52 -31 7 -65 22 -78 35 -38 38 -26 105 25
137 31 19 113 22 145 6z m317 -4 c49 -25 71 -95 30 -95 -11 0 -20 5 -20 10 0
6 -11 22 -25 35 -46 46 -140 23 -133 -33 3 -28 11 -32 131 -66 60 -18 87 -48
87 -98 0 -125 -244 -130 -275 -5 -6 24 -4 27 18 27 18 0 27 -7 31 -26 13 -52
141 -71 166 -24 28 52 3 76 -104 99 -69 15 -106 46 -106 89 0 33 32 79 64 92
34 14 105 11 136 -5z m350 -4 c54 -29 82 -91 78 -173 -5 -100 -55 -157 -145
-165 -114 -11 -197 87 -179 210 18 120 142 184 246 128z m1064 9 c26 -9 66
-63 66 -87 0 -7 -11 -13 -25 -13 -15 0 -25 6 -25 14 0 24 -50 56 -86 56 -35 0
-74 -28 -74 -53 0 -24 34 -46 90 -58 98 -20 130 -47 130 -106 0 -111 -198
-142 -260 -41 -26 43 -25 58 4 58 17 0 26 -7 30 -26 12 -48 118 -70 162 -33 8
6 14 24 14 40 0 32 -28 51 -90 63 -63 13 -108 37 -120 66 -18 45 8 101 55 121
28 11 99 11 129 -1z m-4779 -25 c19 -18 25 -35 25 -69 0 -24 -3 -52 -6 -61
-11 -28 -60 -45 -134 -45 l-70 0 0 -70 c0 -63 -2 -70 -20 -70 -19 0 -20 7 -20
170 l0 170 100 0 c94 0 103 -2 125 -25z m135 -45 l0 -70 85 0 85 0 0 70 c0 68
1 70 25 70 l25 0 0 -170 0 -170 -25 0 c-25 0 -25 1 -25 80 l0 80 -85 0 -85 0
0 -80 c0 -79 0 -80 -25 -80 l-25 0 0 170 0 170 25 0 c24 0 25 -2 25 -70z m798
-62 l87 -133 3 133 c2 124 4 132 22 132 19 0 20 -8 20 -170 l0 -170 -25 0
c-20 0 -39 22 -112 133 l-88 132 -3 -132 c-2 -125 -4 -133 -22 -133 -19 0 -20
8 -20 170 l0 170 25 0 c22 0 39 -20 113 -132z m442 112 c0 -19 -7 -20 -95 -20
l-95 0 0 -50 0 -50 90 0 c83 0 90 -2 90 -20 0 -17 -8 -19 -87 -22 l-88 -3 -3
-57 -3 -58 101 0 c93 0 100 -1 100 -20 0 -19 -7 -20 -125 -20 l-125 0 0 170 0
170 120 0 c113 0 120 -1 120 -20z m406 -149 c35 -91 64 -166 64 -169 0 -2 -12
-2 -26 0 -21 2 -30 12 -43 48 l-17 45 -73 0 -73 0 -18 -45 c-14 -36 -23 -46
-44 -48 -27 -3 -27 -3 -13 30 8 18 38 95 67 171 53 136 54 138 82 135 28 -3
32 -11 94 -167z m1032 152 c-3 -15 -17 -18 -101 -21 l-97 -3 0 -49 0 -50 90 0
c83 0 90 -2 90 -20 0 -17 -8 -19 -87 -22 l-88 -3 -3 -57 -3 -58 101 0 c93 0
100 -1 100 -20 0 -19 -7 -20 -120 -20 l-120 0 0 170 0 170 121 0 c109 0 120
-2 117 -17z m1277 -6 c35 -29 38 -85 7 -126 -18 -25 -19 -31 -7 -41 14 -11 18
-26 29 -112 4 -35 3 -38 -19 -38 -26 0 -35 17 -35 66 0 64 -12 74 -90 74 l-70
0 0 -70 c0 -68 -1 -70 -25 -70 l-25 0 0 170 0 170 104 0 c95 0 107 -2 131 -23z
m145 -147 l0 -170 -25 0 -25 0 0 170 0 170 25 0 25 0 0 -170z m310 150 c0 -19
-7 -20 -95 -20 l-95 0 0 -50 0 -49 87 -3 c74 -3 88 -6 91 -20 3 -16 -6 -18
-87 -18 l-91 0 0 -60 0 -60 95 0 c88 0 95 -1 95 -20 0 -19 -7 -20 -120 -20
l-120 0 0 170 0 170 120 0 c113 0 120 -1 120 -20z m-1008 -4147 c22 -20 23
-61 1 -85 -15 -17 -67 -18 -1231 -18 -1117 0 -1217 1 -1234 17 -22 20 -23 61
-1 85 15 17 67 18 1231 18 1117 0 1217 -1 1234 -17z"/>
<path d="M1364 6304 c-9 -14 -25 -58 -35 -99 -20 -85 -54 -324 -46 -331 2 -3
28 42 56 98 74 149 96 252 70 327 -13 38 -23 39 -45 5z"/>
<path d="M561 5607 c-5 -14 -6 -38 -2 -54 7 -26 8 -25 15 20 8 55 1 73 -13 34z"/>
<path d="M1081 4584 c-51 -43 -63 -140 -24 -202 21 -34 74 -56 116 -48 95 18
126 178 47 249 -41 36 -96 37 -139 1z"/>
<path d="M4141 4585 c-38 -33 -55 -84 -46 -141 13 -87 83 -132 158 -101 51 22
70 64 65 145 -4 58 -8 68 -36 93 -43 38 -98 40 -141 4z"/>
<path d="M390 4540 l0 -60 63 0 c76 0 100 14 100 60 0 46 -24 60 -100 60 l-63
0 0 -60z"/>
<path d="M2250 4565 c-21 -52 -40 -107 -40 -116 0 -5 23 -9 50 -9 28 0 50 4
50 8 0 4 -11 39 -24 78 l-24 69 -12 -30z"/>
<path d="M4480 4545 l0 -55 70 0 c63 0 71 2 86 24 13 22 14 29 2 53 -12 26
-17 28 -86 31 l-72 3 0 -56z"/>
<path d="M2171 9617 c-51 -26 -47 -107 5 -127 17 -7 274 -9 720 -8 775 3 728
-1 728 73 0 74 47 70 -732 72 -541 2 -702 0 -721 -10z"/>
<path d="M3821 9618 c-51 -27 -47 -108 5 -129 56 -21 113 28 98 85 -11 45 -61
66 -103 44z"/>
</g>
</svg>
