<?xml version="1.0" standalone="no"?>
<!DOCTYPE svg PUBLIC "-//W3C//DTD SVG 20010904//EN"
 "http://www.w3.org/TR/2001/REC-SVG-20010904/DTD/svg10.dtd">
<svg version="1.0" xmlns="http://www.w3.org/2000/svg"
 width="147.000000pt" height="256.000000pt" viewBox="0 0 147.000000 256.000000"
 preserveAspectRatio="xMidYMid meet">
<metadata>
Created by potrace 1.16, written by Peter Selinger 2001-2019
</metadata>
<g transform="translate(0.000000,256.000000) scale(0.100000,-0.100000)"
fill="#000000" stroke="none">
<path d="M0 2519 l0 -42 21 27 c11 14 30 33 42 41 21 14 20 15 -21 15 l-42 0
0 -41z"/>
<path d="M1414 2539 c14 -11 33 -30 41 -42 14 -21 15 -20 15 21 l0 42 -41 0
-42 0 27 -21z"/>
<path d="M109 2507 c-18 -12 -44 -38 -56 -56 l-23 -34 0 -1137 0 -1137 23 -34
c12 -18 38 -44 56 -56 l34 -23 592 0 592 0 34 23 c18 12 44 38 56 56 l23 34 0
634 0 635 -33 -64 c-29 -56 -36 -63 -65 -66 -29 -3 -32 0 -32 22 0 32 -7 33
-32 1 -26 -33 -73 -35 -81 -3 l-6 23 -22 -23 c-30 -33 -72 -27 -79 11 l-5 29
-23 -31 c-27 -37 -71 -43 -79 -11 -6 21 -6 21 -20 0 -10 -14 -23 -20 -41 -18
-27 3 -27 4 -25 76 1 39 -1 72 -6 72 -23 0 -54 -53 -59 -100 -4 -44 -7 -51
-25 -48 -19 3 -20 9 -18 76 1 39 0 72 -3 72 -17 0 -56 -79 -56 -112 0 -34 -3
-38 -25 -38 -21 0 -25 5 -25 28 l-1 27 -20 -27 c-27 -37 -79 -40 -80 -5 l0 22
-16 -22 c-19 -29 -72 -32 -74 -5 -1 9 -1 20 0 25 2 14 -11 7 -31 -18 -24 -31
-73 -35 -81 -6 -2 10 -2 51 1 90 4 58 9 75 25 86 30 21 41 4 28 -41 -15 -54
-14 -127 1 -122 23 8 50 56 59 104 9 49 35 82 52 65 5 -5 4 -25 -2 -47 -6 -22
-11 -59 -11 -84 l0 -44 21 21 c13 13 25 42 30 73 8 50 31 90 52 90 6 0 7 -18
3 -45 -3 -25 -9 -65 -12 -90 -4 -29 -3 -45 4 -45 18 0 52 66 52 102 0 23 8 42
23 56 35 33 40 27 34 -29 l-6 -52 29 47 c36 56 67 62 77 15 l6 -30 28 31 c17
18 37 30 47 28 15 -3 17 -15 16 -86 -1 -45 2 -82 5 -82 14 0 46 68 51 109 3
31 12 48 28 59 l23 15 -6 -94 -6 -94 20 23 c11 12 27 43 37 67 16 44 16 46 -1
59 -18 13 -13 42 5 31 5 -3 12 11 15 32 7 45 17 65 33 71 8 2 12 -15 12 -58 0
-57 1 -60 19 -50 11 5 25 10 32 10 20 0 -9 -27 -36 -34 -24 -6 -25 -10 -25
-77 0 -64 2 -70 16 -58 25 20 44 65 44 103 0 25 6 39 22 50 31 22 42 6 29 -40
-15 -54 -14 -127 1 -122 23 8 50 56 59 104 9 49 35 82 52 65 5 -5 4 -25 -2
-47 -6 -22 -11 -59 -11 -83 0 -42 1 -43 19 -27 10 9 26 34 36 56 10 22 22 40
27 40 4 0 8 224 8 499 l0 498 -23 34 c-42 62 -79 79 -173 79 l-84 0 0 -54 c0
-39 -6 -60 -21 -80 l-20 -26 -383 0 c-443 0 -416 -6 -424 100 l-4 60 -83 0
c-69 0 -87 -4 -116 -23z m269 -901 c3 -29 -5 -56 -29 -102 -29 -58 -31 -69
-26 -126 4 -35 9 -75 13 -90 5 -23 3 -28 -12 -28 -34 0 -44 15 -50 78 -6 58
-15 74 -29 53 -3 -5 -18 -12 -35 -16 -26 -6 -29 -11 -32 -48 -3 -36 -7 -43
-27 -45 -23 -4 -24 -2 -17 44 5 37 2 51 -11 66 -13 15 -14 23 -5 43 6 14 16
25 22 25 6 0 10 28 10 66 0 57 -2 65 -17 62 -14 -3 -18 -13 -16 -46 2 -50 -22
-59 -32 -12 -14 65 59 117 98 69 17 -21 19 -34 13 -111 -7 -98 -4 -102 52 -68
26 16 32 26 32 53 0 41 27 146 42 164 6 8 21 13 32 11 17 -2 22 -11 24 -42z
m272 -44 c0 -21 -18 -42 -37 -42 -13 0 -18 41 -6 53 14 14 43 7 43 -11z m400
4 c0 -25 -12 -46 -26 -46 -20 0 -29 27 -14 45 16 19 40 19 40 1z m-896 -393
c7 -18 -16 -43 -40 -43 -7 0 -15 -8 -17 -17 -3 -10 -5 3 -6 30 -1 45 0 47 28
47 18 0 31 -6 35 -17z m47 -23 c10 0 19 6 19 14 0 8 5 18 10 21 6 4 10 -12 10
-39 0 -25 -4 -46 -10 -46 -5 0 -10 9 -10 20 0 29 -37 27 -43 -2 -2 -13 -4 0
-4 27 0 28 2 40 4 28 3 -15 12 -23 24 -23z m130 19 c16 -30 -3 -69 -34 -69
-29 0 -47 17 -47 45 0 45 60 63 81 24z m54 -11 l20 -33 6 35 c6 33 6 32 8 -12
0 -27 -3 -48 -7 -48 -4 0 -16 15 -27 33 l-20 32 -6 -35 c-6 -33 -6 -32 -8 13
0 26 3 47 7 47 4 0 16 -15 27 -32z m96 23 c-36 -10 -38 -31 -4 -32 l28 -2 -27
-4 c-16 -2 -28 -10 -28 -18 0 -8 12 -16 28 -18 25 -4 25 -4 -5 -6 -33 -1 -33
0 -33 44 0 44 1 45 33 44 29 -1 29 -2 8 -8z m122 -33 c18 -46 15 -62 -7 -32
-14 18 -15 18 -35 0 -12 -11 -21 -14 -21 -9 0 19 30 83 39 83 4 0 15 -19 24
-42z m95 22 c5 -13 3 -13 -11 -1 -23 19 -47 7 -47 -24 0 -33 28 -45 47 -19 14
19 15 19 11 -1 -4 -23 -42 -32 -64 -15 -17 15 -18 52 -2 68 17 17 60 11 66 -8z
m90 0 c5 -13 3 -13 -11 -1 -23 19 -47 7 -47 -24 0 -33 26 -43 46 -19 14 18 15
18 12 -1 -4 -24 -42 -32 -64 -15 -17 15 -18 52 -2 68 17 17 60 11 66 -8z m60
13 c-34 -5 -38 -32 -5 -34 l22 -2 -22 -4 c-32 -6 -29 -31 5 -36 22 -3 20 -4
-10 -6 l-38 -1 0 45 0 45 38 -1 c30 -2 32 -3 10 -6z m90 -13 c5 -13 3 -13 -12
-1 -12 10 -20 11 -27 4 -8 -8 -4 -13 12 -18 13 -4 26 -10 29 -14 8 -10 49 -31
60 -31 19 0 10 21 -14 30 -30 11 -37 22 -27 39 11 17 53 10 59 -9 5 -13 3 -13
-12 -1 -12 10 -20 11 -27 4 -8 -8 -4 -13 12 -18 28 -9 39 -23 32 -42 -6 -17
-59 -17 -67 0 -5 10 -7 10 -12 0 -8 -18 -61 -16 -68 2 -6 17 9 21 19 5 8 -13
35 -13 35 0 0 6 -11 15 -25 20 -24 9 -32 29 -18 44 12 11 46 2 51 -14z m170 8
c7 -7 12 -21 12 -33 0 -47 -62 -63 -81 -21 -22 47 33 90 69 54z m89 -38 c1
-39 0 -42 -9 -22 -14 27 -38 29 -38 2 0 -11 -4 -20 -10 -20 -5 0 -10 21 -10
46 0 45 0 45 33 42 31 -3 32 -5 34 -48z m33 4 c0 -27 -4 -43 -10 -39 -17 11
-11 85 7 85 2 0 3 -21 3 -46z m58 39 c-16 -2 -28 -11 -28 -19 0 -8 11 -15 28
-15 l27 -2 -27 -4 c-16 -2 -28 -10 -28 -18 0 -8 12 -16 28 -18 25 -4 25 -4 -5
-6 -33 -1 -33 0 -33 44 0 44 0 45 33 44 30 -2 30 -2 5 -6z m92 -10 c0 -13 -3
-14 -12 -5 -15 15 -28 16 -28 2 0 -6 12 -15 26 -20 36 -14 29 -45 -10 -45 -17
0 -31 6 -34 15 -4 12 -2 13 9 3 7 -7 19 -13 26 -13 22 0 14 20 -12 30 -40 15
-32 50 12 50 15 0 23 -6 23 -17z m-325 -1063 c0 -13 -43 -15 -317 -18 -314 -2
-318 -2 -318 18 0 20 4 20 318 18 274 -3 317 -5 317 -18z"/>
<path d="M342 1585 c-16 -55 -14 -76 4 -42 8 15 14 40 12 55 -4 25 -5 24 -16
-13z"/>
<path d="M107 1174 c-13 -13 -7 -24 14 -24 11 0 19 5 17 12 -5 14 -22 21 -31
12z"/>
<path d="M274 1166 c-10 -26 0 -51 21 -51 16 0 20 7 20 30 0 33 -30 49 -41 21z"/>
<path d="M570 1150 c0 -5 5 -10 11 -10 5 0 7 5 4 10 -3 6 -8 10 -11 10 -2 0
-4 -4 -4 -10z"/>
<path d="M1054 1166 c-10 -26 0 -51 21 -51 16 0 20 7 20 30 0 33 -30 49 -41
21z"/>
<path d="M1150 1165 c0 -10 7 -15 18 -13 21 4 19 22 -2 26 -10 2 -16 -3 -16
-13z"/>
<path d="M550 2445 c0 -13 27 -15 185 -15 158 0 185 2 185 15 0 13 -27 15
-185 15 -158 0 -185 -2 -185 -15z"/>
<path d="M972 2449 c2 -6 8 -10 13 -10 5 0 11 4 13 10 2 6 -4 11 -13 11 -9 0
-15 -5 -13 -11z"/>
<path d="M0 41 l0 -41 42 0 c41 0 42 1 21 15 -12 8 -31 27 -42 41 l-21 27 0
-42z"/>
<path d="M1429 39 l-37 -39 39 0 c39 0 39 0 39 40 0 22 -1 39 -2 39 -2 -1 -19
-19 -39 -40z"/>
</g>
</svg>
