<?xml version="1.0" standalone="no"?>
<!DOCTYPE svg PUBLIC "-//W3C//DTD SVG 20010904//EN"
 "http://www.w3.org/TR/2001/REC-SVG-20010904/DTD/svg10.dtd">
<svg version="1.0" xmlns="http://www.w3.org/2000/svg"
 width="144.000000pt" height="144.000000pt" viewBox="0 0 144.000000 144.000000"
 preserveAspectRatio="xMidYMid meet">

<g transform="translate(0.000000,144.000000) scale(0.100000,-0.100000)"
fill="#000000" stroke="none">
<path d="M100 1409 c-14 -6 -35 -20 -47 -31 l-23 -21 0 -637 0 -637 22 -21
c13 -11 36 -25 51 -31 39 -15 1195 -15 1234 0 15 6 38 20 51 31 l22 21 0 353
0 352 -34 -34 c-37 -37 -96 -49 -96 -18 0 14 -2 14 -22 0 -29 -20 -75 -20 -86
0 -8 14 -10 14 -21 0 -18 -21 -81 -22 -81 -1 0 19 -14 19 -30 0 -15 -18 -80
-20 -80 -3 0 9 -3 9 -12 0 -7 -7 -27 -12 -46 -12 l-35 0 7 40 c7 42 0 48 -35
30 -12 -7 -19 -21 -19 -40 0 -25 -4 -30 -25 -30 -23 0 -25 4 -25 40 0 38 -1
40 -21 29 -12 -6 -26 -24 -32 -40 -8 -20 -18 -29 -34 -29 -13 0 -23 5 -23 10
0 7 -6 7 -19 0 -25 -13 -71 -13 -71 0 0 7 -6 7 -19 0 -25 -13 -68 -13 -76 0
-4 7 -12 7 -25 0 -10 -5 -32 -10 -49 -10 -30 0 -31 1 -31 50 0 44 3 52 25 62
32 14 41 5 27 -27 -16 -34 -15 -65 1 -65 18 0 57 43 57 63 0 18 35 41 49 33 5
-3 4 -24 -2 -45 -6 -22 -8 -43 -4 -47 12 -12 47 28 47 52 0 25 36 52 51 37 5
-5 4 -25 -3 -46 -6 -20 -8 -40 -5 -44 10 -10 57 38 57 58 0 18 27 39 50 39 8
0 10 -9 5 -27 l-7 -28 24 22 c33 30 78 35 78 8 0 -13 6 -12 37 5 49 26 68 15
64 -40 -2 -39 -2 -41 18 -28 11 7 23 25 27 40 5 24 29 48 49 48 3 0 3 -23 -1
-52 -7 -54 -4 -56 38 -20 19 16 24 52 8 52 -5 0 -10 5 -10 10 0 6 7 10 15 10
8 0 17 11 21 24 6 27 30 41 40 25 3 -6 3 -21 0 -34 -6 -23 -4 -23 49 -20 30 1
55 0 55 -4 0 -3 -4 -22 -10 -41 -18 -64 27 -64 60 1 34 66 69 64 48 -4 -6 -20
-8 -40 -5 -43 4 -4 24 8 46 27 l39 34 1 276 c1 273 1 276 -21 297 -36 32 -72
42 -164 42 l-84 0 0 -29 c0 -60 -5 -61 -418 -61 -238 0 -380 4 -393 10 -13 8
-19 21 -19 45 l0 35 -92 -1 c-51 0 -104 -5 -118 -10z m270 -494 c10 -12 9 -20
-5 -42 -10 -16 -24 -32 -32 -36 -16 -10 -17 -80 -2 -108 10 -19 8 -20 -23 -17
-30 3 -33 6 -36 41 -3 32 -6 37 -20 32 -9 -3 -29 -9 -44 -12 -18 -3 -28 -13
-30 -27 -2 -13 -11 -22 -26 -24 -19 -3 -22 1 -22 27 0 17 -4 31 -10 31 -18 0
-11 29 10 40 29 15 28 70 -1 70 -15 0 -20 -5 -17 -22 4 -29 -25 -32 -30 -4 -5
26 24 46 65 46 41 0 54 -22 46 -78 -5 -34 -3 -42 10 -42 37 0 67 23 73 57 12
66 64 104 94 68z m263 -32 c9 -9 -12 -33 -29 -33 -8 0 -14 9 -14 20 0 19 28
28 43 13z m397 -7 c0 -18 -30 -30 -43 -17 -5 5 -6 14 -3 20 10 16 46 13 46 -3z
m-880 -221 c0 -9 -9 -15 -25 -15 -14 0 -25 -4 -25 -10 0 -5 -4 -10 -10 -10 -5
0 -10 11 -10 25 0 22 4 25 35 25 24 0 35 -5 35 -15z m30 5 c0 -14 37 -12 44 3
5 9 7 9 12 -1 4 -10 9 -10 19 -2 23 19 70 8 70 -15 0 -16 -8 -21 -37 -23 -26
-2 -38 1 -38 10 0 10 -3 9 -11 -2 -8 -11 -12 -12 -16 -2 -6 14 -43 16 -43 2 0
-5 -4 -10 -10 -10 -5 0 -10 11 -10 25 0 14 5 25 10 25 6 0 10 -4 10 -10z m195
-6 c18 -13 20 -13 27 3 5 14 7 12 7 -9 1 -32 -5 -34 -31 -11 -17 15 -18 15
-18 0 0 -10 -4 -17 -10 -17 -5 0 -10 11 -10 25 0 29 7 30 35 9z m90 8 l-30 -5
30 -7 30 -8 -30 -2 -30 -2 30 -8 30 -8 -32 -1 c-29 -1 -33 2 -33 24 0 22 4 25
33 24 l32 -2 -30 -5z m125 -11 c14 -27 14 -26 -25 -27 -40 -1 -39 -1 -23 26
16 25 34 25 48 1z m95 9 c4 -6 -6 -7 -25 -4 -24 5 -30 3 -30 -11 0 -14 6 -16
30 -11 19 3 29 2 25 -4 -8 -13 -62 -13 -70 0 -13 20 4 40 34 40 16 0 33 -4 36
-10z m85 2 c0 -4 -10 -8 -22 -7 -13 0 -23 -4 -23 -10 0 -5 10 -10 23 -10 12 1
22 -3 22 -7 0 -4 -15 -8 -34 -8 -36 0 -53 19 -33 39 12 12 67 15 67 3z m55 0
l-30 -5 25 -7 25 -8 -25 -2 c-24 -2 -23 -3 5 -10 l30 -8 -32 -1 c-29 -1 -33 2
-33 24 0 22 4 25 33 24 l32 -2 -30 -5z m98 -11 c6 -25 0 -31 -35 -31 -23 0
-28 4 -28 25 0 21 5 25 29 25 20 0 30 -6 34 -19z m77 2 c1 -17 1 -17 11 0 12
21 62 23 79 2 21 -25 2 -34 -75 -33 -72 0 -75 1 -75 24 0 20 5 24 30 24 22 0
30 -5 30 -17z m176 -10 c4 -24 -11 -32 -19 -10 -3 9 -9 9 -26 -1 -19 -11 -21
-10 -21 14 0 22 4 25 32 22 23 -2 32 -8 34 -25z m34 2 c0 -14 -4 -25 -10 -25
-5 0 -10 11 -10 25 0 14 5 25 10 25 6 0 10 -11 10 -25z m50 15 l-25 -8 25 -2
25 -2 -25 -7 -25 -8 25 -5 c22 -5 21 -5 -7 -7 -29 -1 -33 2 -33 24 0 22 4 25
33 24 30 -1 31 -1 7 -9z m96 -17 c3 -20 -1 -23 -31 -23 -35 0 -36 3 -26 48 1
2 13 2 28 0 18 -2 27 -10 29 -25z m-321 -583 c-8 -14 -625 -14 -625 0 0 6 112
10 316 10 207 0 313 -3 309 -10z"/>
<path d="M335 890 c-4 -12 -5 -24 -2 -27 3 -2 8 5 12 17 4 12 5 24 2 27 -3 2
-8 -5 -12 -17z"/>
<path d="M108 653 c7 -3 16 -2 19 1 4 3 -2 6 -13 5 -11 0 -14 -3 -6 -6z"/>
<path d="M267 654 c-10 -11 3 -24 24 -24 10 0 19 7 19 15 0 15 -31 21 -43 9z"/>
<path d="M888 653 c7 -3 16 -2 19 1 4 3 -2 6 -13 5 -11 0 -14 -3 -6 -6z"/>
<path d="M878 633 c6 -2 18 -2 25 0 6 3 1 5 -13 5 -14 0 -19 -2 -12 -5z"/>
<path d="M968 653 c7 -3 16 -2 19 1 4 3 -2 6 -13 5 -11 0 -14 -3 -6 -6z"/>
<path d="M1030 646 c0 -11 9 -16 26 -16 31 0 28 23 -4 28 -15 2 -22 -2 -22
-12z"/>
<path d="M958 633 c7 -3 16 -2 19 1 4 3 -2 6 -13 5 -11 0 -14 -3 -6 -6z"/>
<path d="M1128 653 c6 -2 18 -2 25 0 6 3 1 5 -13 5 -14 0 -19 -2 -12 -5z"/>
<path d="M1318 653 c7 -3 16 -2 19 1 4 3 -2 6 -13 5 -11 0 -14 -3 -6 -6z"/>
<path d="M1308 633 c6 -2 18 -2 25 0 6 3 1 5 -13 5 -14 0 -19 -2 -12 -5z"/>
<path d="M627 1373 c51 -2 135 -2 185 0 51 1 10 3 -92 3 -102 0 -143 -2 -93
-3z"/>
<path d="M958 1373 c7 -3 16 -2 19 1 4 3 -2 6 -13 5 -11 0 -14 -3 -6 -6z"/>
<path d="M1149 823 c-22 -3 -28 -11 -32 -41 -8 -45 -4 -49 26 -29 15 9 26 29
29 46 3 17 4 30 4 30 -1 -1 -13 -4 -27 -6z"/>
</g>
</svg>
